<svg width="144" height="70" viewBox="0 0 144 70" fill="none" xmlns="http://www.w3.org/2000/svg">
<circle cx="128.316" cy="41.4086" r="4.04244" fill="url(#paint0_linear_553_371)"/>
<line x1="62.7188" y1="54.1747" x2="139.158" y2="54.1747" stroke="#DADADA" stroke-width="0.183747"/>
<path d="M112.145 51.9868L122.667 23.2158H128.585L119.995 45.3284L117.652 51.9868H112.145Z" fill="url(#paint1_linear_553_371)"/>
<path d="M63.0696 59.2917H61.8598L61.6658 59.8643H60.8392L62.0121 56.6226H62.9264L64.0993 59.8643H63.2635L63.0696 59.2917ZM62.8664 58.6821L62.4647 57.4954L62.0676 58.6821H62.8664ZM64.8996 58.5759C64.8996 58.3081 64.9535 58.0741 65.0612 57.874C65.1721 57.6739 65.3244 57.52 65.5184 57.4122C65.7154 57.3045 65.9401 57.2506 66.1926 57.2506C66.5158 57.2506 66.7852 57.3353 67.0007 57.5046C67.2193 57.6739 67.3624 57.9125 67.4301 58.2204H66.5897C66.5189 58.0233 66.3819 57.9248 66.1787 57.9248C66.034 57.9248 65.9186 57.9818 65.8324 58.0957C65.7462 58.2065 65.7031 58.3666 65.7031 58.5759C65.7031 58.7853 65.7462 58.9469 65.8324 59.0608C65.9186 59.1716 66.034 59.227 66.1787 59.227C66.3819 59.227 66.5189 59.1285 66.5897 58.9315H67.4301C67.3624 59.2332 67.2193 59.4702 67.0007 59.6426C66.7821 59.815 66.5127 59.9012 66.1926 59.9012C65.9401 59.9012 65.7154 59.8473 65.5184 59.7396C65.3244 59.6318 65.1721 59.4779 65.0612 59.2778C64.9535 59.0777 64.8996 58.8437 64.8996 58.5759ZM68.2958 58.5759C68.2958 58.3081 68.3497 58.0741 68.4574 57.874C68.5683 57.6739 68.7206 57.52 68.9146 57.4122C69.1116 57.3045 69.3363 57.2506 69.5888 57.2506C69.912 57.2506 70.1814 57.3353 70.3969 57.5046C70.6154 57.6739 70.7586 57.9125 70.8263 58.2204H69.9859C69.9151 58.0233 69.7781 57.9248 69.5749 57.9248C69.4302 57.9248 69.3148 57.9818 69.2286 58.0957C69.1424 58.2065 69.0993 58.3666 69.0993 58.5759C69.0993 58.7853 69.1424 58.9469 69.2286 59.0608C69.3148 59.1716 69.4302 59.227 69.5749 59.227C69.7781 59.227 69.9151 59.1285 69.9859 58.9315H70.8263C70.7586 59.2332 70.6154 59.4702 70.3969 59.6426C70.1783 59.815 69.9089 59.9012 69.5888 59.9012C69.3363 59.9012 69.1116 59.8473 68.9146 59.7396C68.7206 59.6318 68.5683 59.4779 68.4574 59.2778C68.3497 59.0777 68.2958 58.8437 68.2958 58.5759ZM73.0219 59.9012C72.7695 59.9012 72.5417 59.8473 72.3385 59.7396C72.1384 59.6318 71.9798 59.4779 71.8628 59.2778C71.7489 59.0777 71.692 58.8437 71.692 58.5759C71.692 58.3112 71.7505 58.0787 71.8675 57.8786C71.9844 57.6755 72.1445 57.52 72.3477 57.4122C72.5509 57.3045 72.7787 57.2506 73.0311 57.2506C73.2836 57.2506 73.5114 57.3045 73.7146 57.4122C73.9177 57.52 74.0778 57.6755 74.1948 57.8786C74.3118 58.0787 74.3703 58.3112 74.3703 58.5759C74.3703 58.8407 74.3102 59.0746 74.1902 59.2778C74.0732 59.4779 73.9116 59.6318 73.7053 59.7396C73.5021 59.8473 73.2743 59.9012 73.0219 59.9012ZM73.0219 59.2178C73.1727 59.2178 73.3005 59.1624 73.4052 59.0515C73.5129 58.9407 73.5668 58.7822 73.5668 58.5759C73.5668 58.3697 73.5145 58.2111 73.4098 58.1003C73.3082 57.9895 73.182 57.9341 73.0311 57.9341C72.8772 57.9341 72.7494 57.9895 72.6479 58.1003C72.5463 58.208 72.4955 58.3666 72.4955 58.5759C72.4955 58.7822 72.5447 58.9407 72.6432 59.0515C72.7448 59.1624 72.871 59.2178 73.0219 59.2178ZM77.9338 57.2876V59.8643H77.1442V59.5133C77.0642 59.6272 76.9549 59.7196 76.8164 59.7904C76.6809 59.8581 76.5301 59.892 76.3638 59.892C76.1668 59.892 75.9929 59.8489 75.842 59.7627C75.6912 59.6734 75.5742 59.5456 75.4911 59.3794C75.408 59.2132 75.3664 59.0177 75.3664 58.7929V57.2876H76.1514V58.6867C76.1514 58.8591 76.196 58.993 76.2853 59.0885C76.3746 59.1839 76.4947 59.2316 76.6455 59.2316C76.7994 59.2316 76.921 59.1839 77.0103 59.0885C77.0996 58.993 77.1442 58.8591 77.1442 58.6867V57.2876H77.9338ZM80.6714 57.2599C80.973 57.2599 81.2132 57.3584 81.3917 57.5554C81.5734 57.7493 81.6642 58.0172 81.6642 58.3589V59.8643H80.8792V58.4651C80.8792 58.2927 80.8345 58.1588 80.7452 58.0633C80.656 57.9679 80.5359 57.9202 80.3851 57.9202C80.2342 57.9202 80.1142 57.9679 80.0249 58.0633C79.9356 58.1588 79.891 58.2927 79.891 58.4651V59.8643H79.1013V57.2876H79.891V57.6293C79.971 57.5154 80.0788 57.4261 80.2142 57.3615C80.3497 57.2937 80.502 57.2599 80.6714 57.2599ZM84.2493 59.1947V59.8643H83.8476C83.5613 59.8643 83.3381 59.795 83.178 59.6565C83.0179 59.5149 82.9379 59.2855 82.9379 58.9684V57.9433H82.6239V57.2876H82.9379V56.6596H83.7275V57.2876H84.2447V57.9433H83.7275V58.9777C83.7275 59.0546 83.746 59.11 83.7829 59.1439C83.8198 59.1778 83.8814 59.1947 83.9676 59.1947H84.2493ZM85.6866 57.0197C85.548 57.0197 85.4341 56.9797 85.3448 56.8997C85.2587 56.8166 85.2156 56.715 85.2156 56.5949C85.2156 56.4718 85.2587 56.3702 85.3448 56.2901C85.4341 56.207 85.548 56.1655 85.6866 56.1655C85.822 56.1655 85.9328 56.207 86.019 56.2901C86.1083 56.3702 86.1529 56.4718 86.1529 56.5949C86.1529 56.715 86.1083 56.8166 86.019 56.8997C85.9328 56.9797 85.822 57.0197 85.6866 57.0197ZM86.0791 57.2876V59.8643H85.2894V57.2876H86.0791ZM88.8216 57.2599C89.1233 57.2599 89.3634 57.3584 89.542 57.5554C89.7236 57.7493 89.8144 58.0172 89.8144 58.3589V59.8643H89.0294V58.4651C89.0294 58.2927 88.9848 58.1588 88.8955 58.0633C88.8062 57.9679 88.6862 57.9202 88.5353 57.9202C88.3845 57.9202 88.2644 57.9679 88.1751 58.0633C88.0859 58.1588 88.0412 58.2927 88.0412 58.4651V59.8643H87.2516V57.2876H88.0412V57.6293C88.1213 57.5154 88.229 57.4261 88.3645 57.3615C88.4999 57.2937 88.6523 57.2599 88.8216 57.2599ZM91.9424 57.2506C92.124 57.2506 92.2826 57.2876 92.418 57.3615C92.5566 57.4353 92.6628 57.5323 92.7367 57.6524V57.2876H93.5263V59.8596C93.5263 60.0967 93.4786 60.3106 93.3831 60.5015C93.2908 60.6954 93.1476 60.8494 92.9537 60.9633C92.7628 61.0772 92.5242 61.1341 92.2379 61.1341C91.8562 61.1341 91.5468 61.0433 91.3098 60.8617C91.0727 60.6831 90.9373 60.4399 90.9034 60.1321H91.6838C91.7084 60.2306 91.7669 60.3076 91.8593 60.363C91.9516 60.4215 92.0656 60.4507 92.201 60.4507C92.3642 60.4507 92.4935 60.403 92.5889 60.3076C92.6874 60.2152 92.7367 60.0659 92.7367 59.8596V59.4948C92.6597 59.6149 92.5535 59.7134 92.418 59.7904C92.2826 59.8643 92.124 59.9012 91.9424 59.9012C91.73 59.9012 91.5376 59.8473 91.3652 59.7396C91.1928 59.6288 91.0558 59.4733 90.9542 59.2732C90.8557 59.07 90.8065 58.836 90.8065 58.5713C90.8065 58.3065 90.8557 58.0741 90.9542 57.874C91.0558 57.6739 91.1928 57.52 91.3652 57.4122C91.5376 57.3045 91.73 57.2506 91.9424 57.2506ZM92.7367 58.5759C92.7367 58.3789 92.6812 58.2234 92.5704 58.1095C92.4627 57.9956 92.3303 57.9387 92.1733 57.9387C92.0163 57.9387 91.8824 57.9956 91.7716 58.1095C91.6638 58.2204 91.6099 58.3743 91.6099 58.5713C91.6099 58.7683 91.6638 58.9253 91.7716 59.0423C91.8824 59.1562 92.0163 59.2132 92.1733 59.2132C92.3303 59.2132 92.4627 59.1562 92.5704 59.0423C92.6812 58.9284 92.7367 58.7729 92.7367 58.5759ZM97.4496 59.8966C97.2126 59.8966 97.0002 59.8581 96.8124 59.7811C96.6246 59.7042 96.4737 59.5903 96.3598 59.4394C96.249 59.2886 96.1905 59.107 96.1844 58.8945H97.0248C97.0371 59.0146 97.0787 59.107 97.1495 59.1716C97.2203 59.2332 97.3126 59.264 97.4265 59.264C97.5435 59.264 97.6359 59.2378 97.7036 59.1855C97.7713 59.13 97.8052 59.0546 97.8052 58.9592C97.8052 58.8791 97.7775 58.813 97.7221 58.7606C97.6697 58.7083 97.6035 58.6652 97.5235 58.6313C97.4465 58.5975 97.3357 58.559 97.191 58.5159C96.9817 58.4512 96.8108 58.3866 96.6785 58.3219C96.5461 58.2573 96.4322 58.1619 96.3367 58.0356C96.2413 57.9094 96.1936 57.7447 96.1936 57.5415C96.1936 57.2399 96.3029 57.0044 96.5215 56.835C96.74 56.6626 97.0248 56.5764 97.3757 56.5764C97.7328 56.5764 98.0207 56.6626 98.2392 56.835C98.4578 57.0044 98.5748 57.2414 98.5902 57.5462H97.7359C97.7298 57.4415 97.6913 57.3599 97.6205 57.3014C97.5497 57.2399 97.4589 57.2091 97.348 57.2091C97.2526 57.2091 97.1756 57.2352 97.1171 57.2876C97.0586 57.3368 97.0294 57.4092 97.0294 57.5046C97.0294 57.6093 97.0787 57.6909 97.1772 57.7493C97.2757 57.8078 97.4296 57.8709 97.6389 57.9387C97.8483 58.0095 98.0176 58.0772 98.1469 58.1418C98.2793 58.2065 98.3932 58.3004 98.4886 58.4235C98.584 58.5467 98.6318 58.7052 98.6318 58.8992C98.6318 59.0839 98.584 59.2516 98.4886 59.4025C98.3962 59.5533 98.2608 59.6734 98.0822 59.7627C97.9037 59.8519 97.6928 59.8966 97.4496 59.8966ZM102.147 58.5344C102.147 58.6082 102.142 58.6852 102.133 58.7652H100.346C100.358 58.9253 100.409 59.0485 100.498 59.1347C100.591 59.2178 100.703 59.2593 100.835 59.2593C101.033 59.2593 101.17 59.1762 101.246 59.01H102.087C102.044 59.1793 101.965 59.3317 101.851 59.4671C101.741 59.6026 101.6 59.7088 101.431 59.7858C101.262 59.8627 101.073 59.9012 100.863 59.9012C100.611 59.9012 100.386 59.8473 100.189 59.7396C99.992 59.6318 99.8381 59.4779 99.7272 59.2778C99.6164 59.0777 99.561 58.8437 99.561 58.5759C99.561 58.3081 99.6149 58.0741 99.7226 57.874C99.8334 57.6739 99.9874 57.52 100.184 57.4122C100.381 57.3045 100.608 57.2506 100.863 57.2506C101.113 57.2506 101.334 57.303 101.528 57.4076C101.722 57.5123 101.873 57.6616 101.981 57.8556C102.092 58.0495 102.147 58.2758 102.147 58.5344ZM101.339 58.3266C101.339 58.1911 101.293 58.0834 101.2 58.0033C101.108 57.9233 100.992 57.8833 100.854 57.8833C100.722 57.8833 100.609 57.9217 100.517 57.9987C100.428 58.0757 100.372 58.1849 100.351 58.3266H101.339ZM103.953 57.717C104.046 57.5754 104.161 57.4646 104.3 57.3845C104.438 57.3014 104.592 57.2599 104.762 57.2599V58.0957H104.544C104.347 58.0957 104.2 58.1388 104.101 58.225C104.003 58.3081 103.953 58.4559 103.953 58.6683V59.8643H103.164V57.2876H103.953V57.717ZM106.898 59.1254L107.457 57.2876H108.297L107.383 59.8643H106.409L105.495 57.2876H106.34L106.898 59.1254ZM109.627 57.0197C109.489 57.0197 109.375 56.9797 109.286 56.8997C109.199 56.8166 109.156 56.715 109.156 56.5949C109.156 56.4718 109.199 56.3702 109.286 56.2901C109.375 56.207 109.489 56.1655 109.627 56.1655C109.763 56.1655 109.874 56.207 109.96 56.2901C110.049 56.3702 110.094 56.4718 110.094 56.5949C110.094 56.715 110.049 56.8166 109.96 56.8997C109.874 56.9797 109.763 57.0197 109.627 57.0197ZM110.02 57.2876V59.8643H109.23V57.2876H110.02ZM111.035 58.5759C111.035 58.3081 111.089 58.0741 111.197 57.874C111.308 57.6739 111.46 57.52 111.654 57.4122C111.851 57.3045 112.076 57.2506 112.328 57.2506C112.652 57.2506 112.921 57.3353 113.136 57.5046C113.355 57.6739 113.498 57.9125 113.566 58.2204H112.725C112.655 58.0233 112.518 57.9248 112.314 57.9248C112.17 57.9248 112.054 57.9818 111.968 58.0957C111.882 58.2065 111.839 58.3666 111.839 58.5759C111.839 58.7853 111.882 58.9469 111.968 59.0608C112.054 59.1716 112.17 59.227 112.314 59.227C112.518 59.227 112.655 59.1285 112.725 58.9315H113.566C113.498 59.2332 113.355 59.4702 113.136 59.6426C112.918 59.815 112.648 59.9012 112.328 59.9012C112.076 59.9012 111.851 59.8473 111.654 59.7396C111.46 59.6318 111.308 59.4779 111.197 59.2778C111.089 59.0777 111.035 58.8437 111.035 58.5759ZM117.017 58.5344C117.017 58.6082 117.013 58.6852 117.004 58.7652H115.217C115.229 58.9253 115.28 59.0485 115.369 59.1347C115.461 59.2178 115.574 59.2593 115.706 59.2593C115.903 59.2593 116.04 59.1762 116.117 59.01H116.957C116.914 59.1793 116.836 59.3317 116.722 59.4671C116.611 59.6026 116.471 59.7088 116.302 59.7858C116.132 59.8627 115.943 59.9012 115.734 59.9012C115.481 59.9012 115.257 59.8473 115.059 59.7396C114.862 59.6318 114.709 59.4779 114.598 59.2778C114.487 59.0777 114.431 58.8437 114.431 58.5759C114.431 58.3081 114.485 58.0741 114.593 57.874C114.704 57.6739 114.858 57.52 115.055 57.4122C115.252 57.3045 115.478 57.2506 115.734 57.2506C115.983 57.2506 116.205 57.303 116.399 57.4076C116.593 57.5123 116.743 57.6616 116.851 57.8556C116.962 58.0495 117.017 58.2758 117.017 58.5344ZM116.209 58.3266C116.209 58.1911 116.163 58.0834 116.071 58.0033C115.978 57.9233 115.863 57.8833 115.724 57.8833C115.592 57.8833 115.48 57.9217 115.387 57.9987C115.298 58.0757 115.243 58.1849 115.221 58.3266H116.209ZM119.083 59.9012C118.858 59.9012 118.658 59.8627 118.482 59.7858C118.307 59.7088 118.168 59.6041 118.067 59.4718C117.965 59.3363 117.908 59.1855 117.896 59.0192H118.676C118.685 59.1085 118.727 59.1808 118.801 59.2362C118.875 59.2917 118.966 59.3194 119.073 59.3194C119.172 59.3194 119.247 59.3009 119.3 59.264C119.355 59.2239 119.383 59.1731 119.383 59.1116C119.383 59.0377 119.344 58.9838 119.267 58.9499C119.19 58.913 119.066 58.873 118.893 58.8299C118.708 58.7868 118.555 58.7422 118.431 58.696C118.308 58.6467 118.202 58.5713 118.113 58.4697C118.024 58.365 117.979 58.225 117.979 58.0495C117.979 57.9017 118.019 57.7678 118.099 57.6478C118.182 57.5246 118.302 57.4276 118.459 57.3568C118.619 57.286 118.809 57.2506 119.027 57.2506C119.35 57.2506 119.604 57.3307 119.789 57.4908C119.977 57.6508 120.085 57.8632 120.112 58.128H119.383C119.37 58.0387 119.33 57.9679 119.263 57.9156C119.198 57.8632 119.112 57.8371 119.004 57.8371C118.912 57.8371 118.841 57.8556 118.792 57.8925C118.742 57.9264 118.718 57.9741 118.718 58.0356C118.718 58.1095 118.756 58.1649 118.833 58.2019C118.913 58.2388 119.036 58.2758 119.203 58.3127C119.393 58.362 119.549 58.4112 119.669 58.4605C119.789 58.5066 119.894 58.5836 119.983 58.6914C120.075 58.796 120.123 58.9376 120.126 59.1162C120.126 59.267 120.083 59.4025 119.997 59.5225C119.914 59.6395 119.792 59.7319 119.632 59.7996C119.475 59.8673 119.292 59.9012 119.083 59.9012ZM125.259 57.6662C125.259 57.854 125.216 58.0264 125.13 58.1834C125.043 58.3373 124.911 58.462 124.732 58.5574C124.554 58.6529 124.332 58.7006 124.067 58.7006H123.578V59.8643H122.788V56.6226H124.067C124.326 56.6226 124.545 56.6673 124.723 56.7565C124.902 56.8458 125.036 56.9689 125.125 57.126C125.214 57.283 125.259 57.463 125.259 57.6662ZM124.007 58.0726C124.158 58.0726 124.271 58.0372 124.345 57.9664C124.418 57.8956 124.455 57.7955 124.455 57.6662C124.455 57.5369 124.418 57.4369 124.345 57.3661C124.271 57.2953 124.158 57.2599 124.007 57.2599H123.578V58.0726H124.007ZM127.429 59.1254L127.988 57.2876H128.828L127.914 59.8643H126.94L126.025 57.2876H126.871L127.429 59.1254ZM131.197 59.1947V59.8643H130.795C130.509 59.8643 130.286 59.795 130.126 59.6565C129.966 59.5149 129.886 59.2855 129.886 58.9684V57.9433H129.572V57.2876H129.886V56.6596H130.675V57.2876H131.193V57.9433H130.675V58.9777C130.675 59.0546 130.694 59.11 130.731 59.1439C130.768 59.1778 130.829 59.1947 130.916 59.1947H131.197ZM132.607 59.9012C132.468 59.9012 132.354 59.8612 132.265 59.7811C132.179 59.698 132.136 59.5964 132.136 59.4764C132.136 59.3532 132.179 59.2501 132.265 59.167C132.354 59.0839 132.468 59.0423 132.607 59.0423C132.742 59.0423 132.853 59.0839 132.939 59.167C133.029 59.2501 133.073 59.3532 133.073 59.4764C133.073 59.5964 133.029 59.698 132.939 59.7811C132.853 59.8612 132.742 59.9012 132.607 59.9012ZM134.931 59.2547H135.965V59.8643H134.141V56.6226H134.931V59.2547ZM138.378 59.1947V59.8643H137.976C137.69 59.8643 137.467 59.795 137.307 59.6565C137.147 59.5149 137.067 59.2855 137.067 58.9684V57.9433H136.753V57.2876H137.067V56.6596H137.856V57.2876H138.373V57.9433H137.856V58.9777C137.856 59.0546 137.875 59.11 137.912 59.1439C137.949 59.1778 138.01 59.1947 138.096 59.1947H138.378ZM139.261 58.5713C139.261 58.3065 139.31 58.0741 139.409 57.874C139.51 57.6739 139.647 57.52 139.82 57.4122C139.992 57.3045 140.185 57.2506 140.397 57.2506C140.566 57.2506 140.72 57.286 140.859 57.3568C141 57.4276 141.111 57.5231 141.191 57.6431V56.4471H141.981V59.8643H141.191V59.4948C141.117 59.618 141.011 59.7165 140.873 59.7904C140.737 59.8643 140.579 59.9012 140.397 59.9012C140.185 59.9012 139.992 59.8473 139.82 59.7396C139.647 59.6288 139.51 59.4733 139.409 59.2732C139.31 59.07 139.261 58.836 139.261 58.5713ZM141.191 58.5759C141.191 58.3789 141.136 58.2234 141.025 58.1095C140.917 57.9956 140.785 57.9387 140.628 57.9387C140.471 57.9387 140.337 57.9956 140.226 58.1095C140.118 58.2204 140.065 58.3743 140.065 58.5713C140.065 58.7683 140.118 58.9253 140.226 59.0423C140.337 59.1562 140.471 59.2132 140.628 59.2132C140.785 59.2132 140.917 59.1562 141.025 59.0423C141.136 58.9284 141.191 58.7729 141.191 58.5759Z" fill="black"/>
<path d="M27.2584 51.3276H21.9297V22.8758L34.0546 31.9182L52.5503 12.1895V21.4444L34.0546 41.3715L27.4784 35.8228C27.3414 40.481 27.2584 51.3276 27.2584 51.3276Z" fill="black"/>
<path fill-rule="evenodd" clip-rule="evenodd" d="M62.0312 22.5645V51.3355H67.2922V22.5645H62.0312ZM74.5499 22.5645V51.3355H92.5524V47.2253H79.8109V22.5645H74.5499ZM99.7717 51.3355V26.7979H91.387V22.5645H112.518V24.6582V26.7979H105.033V51.3355H99.7717ZM131.257 45.8519L133.58 51.9835H139.17L129.239 25.05L126.299 32.7674L127.572 36.1269C127.817 36.0923 128.068 36.0745 128.323 36.0745C131.266 36.0745 133.651 38.4602 133.651 41.4031C133.651 43.2619 132.699 44.8985 131.257 45.8519Z" fill="black"/>
<path fill-rule="evenodd" clip-rule="evenodd" d="M47.3001 51.3256H52.8488V37.9802C52.8399 37.9804 52.831 37.9805 52.8221 37.9805C52.7016 37.9805 52.5853 37.9626 52.4757 37.9295L47.9993 44.3149C48.0868 44.481 48.1363 44.6701 48.1363 44.8708C48.1363 45.4056 47.7847 45.8584 47.3001 46.0105V51.3256ZM51.8721 37.5101L47.4649 43.7968C47.4121 43.771 47.357 43.7489 47.3001 43.7311V28.2991L52.8488 22.5449V35.5921C52.8399 35.5919 52.831 35.5918 52.8221 35.5918C52.1625 35.5918 51.6278 36.1265 51.6278 36.7861C51.6278 37.0583 51.7188 37.3092 51.8721 37.5101ZM46.6836 28.9156V43.7045C46.3972 43.7676 46.1494 43.9336 45.9808 44.1616L41.886 42.2626C41.8702 41.6994 41.4646 41.2338 40.9294 41.1259V35.2864L46.6836 28.9156ZM41.6753 42.9751L45.7476 44.8637L45.7476 44.8708C45.7476 45.4417 46.1481 45.9191 46.6836 46.0371V51.3256H40.9294V43.4675C41.2375 43.4054 41.5027 43.2247 41.6753 42.9751ZM40.3128 41.1639V36.1084L34.3531 42.2736L34.298 46.6159C34.6143 46.6252 34.8996 46.7574 35.108 46.9664L39.5637 42.689C39.521 42.5661 39.4978 42.4341 39.4978 42.2967C39.4978 41.7697 39.8391 41.3224 40.3128 41.1639ZM40.0113 43.2781L35.4473 47.6596C35.4535 47.7087 35.4566 47.7589 35.4566 47.8097C35.4566 48.4675 34.9249 49.0011 34.2677 49.0041L34.2383 51.3256H40.3128V43.4296C40.2046 43.3934 40.1032 43.3421 40.0113 43.2781Z" fill="url(#paint2_linear_553_371)"/>
<path fill-rule="evenodd" clip-rule="evenodd" d="M61.1633 15.3843C55.7304 8.79975 47.6217 4.47067 38.4204 4.10983C21.2834 3.43776 6.84621 16.7853 6.17414 33.9223C5.50207 51.0594 18.8496 65.4966 35.9867 66.1686C44.3109 66.4951 51.9981 63.5137 57.7801 58.3968C51.5795 64.4325 43.0101 68.0113 33.681 67.6454C15.6313 66.9375 1.57295 51.7315 2.28081 33.6819C2.98867 15.6322 18.1947 1.57383 36.2444 2.28169C46.4965 2.68375 55.4609 7.76318 61.1633 15.3843Z" fill="url(#paint3_linear_553_371)"/>
<path d="M58.2867 57.4793L53.7794 57.131L62.0178 53.7781L59.2978 60.8222L58.2867 57.4793Z" fill="#266929"/>
<defs>
<linearGradient id="paint0_linear_553_371" x1="128.316" y1="37.3662" x2="128.316" y2="45.4511" gradientUnits="userSpaceOnUse">
<stop stop-color="#99BA3B"/>
<stop offset="1" stop-color="#266929"/>
</linearGradient>
<linearGradient id="paint1_linear_553_371" x1="120.365" y1="23.2158" x2="120.365" y2="51.9868" gradientUnits="userSpaceOnUse">
<stop stop-color="#9ABB3B"/>
<stop offset="1" stop-color="#266929"/>
</linearGradient>
<linearGradient id="paint2_linear_553_371" x1="43.601" y1="22.5449" x2="43.8065" y2="58.0977" gradientUnits="userSpaceOnUse">
<stop stop-color="#9DBD3B"/>
<stop offset="1" stop-color="#266929"/>
</linearGradient>
<linearGradient id="paint3_linear_553_371" x1="29.703" y1="1.74504" x2="27.1396" y2="67.1087" gradientUnits="userSpaceOnUse">
<stop stop-color="#9ABC3B"/>
<stop offset="1" stop-color="#266929"/>
</linearGradient>
</defs>
</svg>
